<?xml version="1.0" encoding="UTF-8"?>
<!DOCTYPE svg PUBLIC "-//W3C//DTD SVG 1.1//EN" "http://www.w3.org/Graphics/SVG/1.1/DTD/svg11.dtd">
<!-- Creator: CorelDRAW 2019 (64-Bit) -->
<svg xmlns="http://www.w3.org/2000/svg" xml:space="preserve" width="158.75mm" height="158.75mm" version="1.1" style="shape-rendering:geometricPrecision; text-rendering:geometricPrecision; image-rendering:optimizeQuality; fill-rule:evenodd; clip-rule:evenodd"
viewBox="0 0 15875 15875"
 xmlns:xlink="http://www.w3.org/1999/xlink">
 <defs>
  <style type="text/css">
   <![CDATA[
    .str0 {stroke:black;stroke-width:20;stroke-miterlimit:22.9256}
    .fil0 {fill:black}
    .fil1 {fill:#FEE202;fill-rule:nonzero}
    .fil2 {fill:#FF0406;fill-rule:nonzero}
   ]]>
  </style>
 </defs>
 <g id="Слой_x0020_1">
  <metadata id="CorelCorpID_0Corel-Layer"/>
  <g id="_2533765227376">
   <circle class="fil0 str0" cx="8112.97" cy="7950.37" r="7188.31"/>
   <path class="fil1" d="M6569.98 5844.6l-131.6 -503.81 -872.26 0 -135.36 503.81 -797.07 0 875.4 -2695.76 967.52 0 886.68 2695.76 -793.31 0zm-282.61 -1097.86l-115.3 -441.14c-26.95,-97.76 -59.53,-224.34 -98.38,-379.74 -38.23,-156.03 -63.92,-266.95 -75.83,-334.62 -11.28,62.66 -33.21,165.43 -65.17,308.93 -32.58,142.87 -104.64,425.48 -216.18,846.57l570.86 0z"/>
   <path id="1" class="fil1" d="M10208.82 5844.6l-951.23 0 -980.05 -1891.17 -16.29 0c23.19,297.65 34.47,524.49 34.47,681.15l0 1210.02 -642.3 0 0 -2684.48 947.46 0 976.29 1865.47 11.28 0c-17.54,-270.7 -25.69,-487.51 -25.69,-651.69l0 -1213.78 646.06 0 0 2684.48z"/>
   <polygon id="2" class="fil1" points="11973.41,5844.6 11248.4,5844.6 11248.4,3754.16 10592.32,3754.16 10592.32,3160.12 12627.61,3160.12 12627.61,3754.16 11973.41,3754.16 "/>
   <polygon id="3" class="fil1" points="13968.6,4155.21 14431.05,3160.12 15216.84,3160.12 14333.92,4796.25 14333.92,5844.6 13603.27,5844.6 13603.27,4818.18 12720.35,3160.12 13509.9,3160.12 "/>
   <polygon id="4" class="fil2" points="5599.33,10043.16 4881.21,10043.16 4881.21,7185.73 5599.33,7185.73 "/>
   <path id="5" class="fil2" d="M7452.9 10043.16l-137.23 -275.09 -15.04 0c-96.5,120.31 -194.88,202.4 -295.14,246.27 -100.89,44.49 -230.6,66.42 -389.76,66.42 -195.51,0 -349.66,-58.91 -462.46,-176.09 -112.16,-117.8 -168.56,-283.23 -168.56,-496.29 0,-221.2 77.07,-386.63 231.23,-495.03 154.15,-108.41 377.23,-169.19 669.86,-182.35l347.16 -11.28 0 -29.45c0,-171.07 -84.6,-256.3 -253.16,-256.3 -152.27,0 -344.65,51.39 -578.38,154.16l-207.42 -474.36c241.88,-124.7 548.3,-187.37 917.39,-187.37 266.94,0 473.73,65.8 619.74,198.02 146.63,132.22 219.32,317.07 219.32,554.57l0 1364.17 -497.55 0zm-532.01 -469.97c86.48,0 161.05,-27.57 223.08,-82.72 61.41,-55.14 92.75,-126.58 92.75,-214.31l0 -161.67 -165.43 7.52c-236.24,8.15 -354.05,95.25 -354.05,260.06 0,127.2 67.68,191.12 203.65,191.12z"/>
   <path id="6" class="fil2" d="M8187.31 7964l756.34 0 352.8 1192.48c16.91,62.66 28.82,137.86 35.09,225.59l14.41 0c10.03,-83.97 24.44,-157.92 44.49,-221.83l361.57 -1196.24 732.53 0 -822.77 2212.01c-105.27,281.35 -234.36,479.99 -388.51,595.92 -153.52,115.93 -354.05,173.58 -600.94,173.58 -95.87,0 -193.63,-10.66 -293.89,-31.33l0 -562.09c64.55,14.41 139.11,21.93 222.46,21.93 63.29,0 119.06,-12.53 166.68,-36.97 47.62,-24.44 89.61,-58.9 125.33,-103.39 35.09,-45.12 73.31,-118.44 113.42,-219.95l-819.01 -2049.71z"/>
   <path id="7" class="fil2" d="M11427.61 8874.5c86.48,-138.49 160.42,-246.27 221.83,-323.35l465.59 -587.15 800.83 0 -721.25 884.18 767 1194.98 -820.89 0 -454.31 -745.06 -233.1 177.96 0 567.1 -721.88 0 0 -2857.43 721.88 0 0 1124.17c0,192.38 -13.79,380.37 -40.73,564.6l15.03 0z"/>
   <path id="8" class="fil2" d="M14566.4 10043.16l-137.23 -275.09 -15.04 0c-96.5,120.31 -194.88,202.4 -295.14,246.27 -100.89,44.49 -230.6,66.42 -389.76,66.42 -195.51,0 -349.66,-58.91 -462.46,-176.09 -112.16,-117.8 -168.56,-283.23 -168.56,-496.29 0,-221.2 77.07,-386.63 231.23,-495.03 154.15,-108.41 377.23,-169.19 669.86,-182.35l347.16 -11.28 0 -29.45c0,-171.07 -84.6,-256.3 -253.16,-256.3 -152.27,0 -344.65,51.39 -578.38,154.16l-207.42 -474.36c241.88,-124.7 548.3,-187.37 917.39,-187.37 266.94,0 473.73,65.8 619.74,198.02 146.63,132.22 219.32,317.07 219.32,554.57l0 1364.17 -497.55 0zm-532.01 -469.97c86.48,0 161.05,-27.57 223.08,-82.72 61.41,-55.14 92.75,-126.58 92.75,-214.31l0 -161.67 -165.43 7.52c-236.24,8.15 -354.05,95.25 -354.05,260.06 0,127.2 67.68,191.12 203.65,191.12z"/>
   <path id="9" class="fil1" d="M7206.01 11557.24l0 1616.08c0,351.54 -99.01,624.12 -298.28,816.49 -198.64,193.01 -485.64,289.51 -860.36,289.51 -365.95,0 -647.31,-93.37 -843.45,-280.73 -196.76,-187.36 -294.51,-456.82 -294.51,-808.36l0 -1632.99 728.77 0 0 1575.34c0,189.25 35.09,327.11 106.53,412.95 70.8,85.85 175.45,128.46 313.94,128.46 148.51,0 255.66,-42.61 322.71,-127.83 66.42,-84.59 99.64,-224.33 99.64,-417.33l0 -1571.59 725.01 0z"/>
   <path id="10" class="fil1" d="M9378.54 14241.72l-131.6 -503.81 -872.26 0 -135.36 503.81 -797.07 0 875.4 -2695.76 967.52 0 886.68 2695.76 -793.31 0zm-282.61 -1097.86l-115.3 -441.14c-26.95,-97.76 -59.53,-224.34 -98.38,-379.74 -38.23,-156.03 -63.92,-266.95 -75.83,-334.62 -11.28,62.66 -33.21,165.43 -65.17,308.93 -32.58,142.87 -104.64,425.48 -216.18,846.57l570.86 0z"/>
   <path class="fil2" d="M3464.11 10243.79l-2521.77 0 -391.57 -7236.36 3304.92 0 -391.58 7236.36zm-2882.02 2673.18c0,-462.07 138.36,-822.32 412.46,-1080.76 276.72,-258.44 676.13,-386.36 1200.84,-386.36 519.5,0 913.69,127.92 1182.57,386.36 266.27,258.44 402.02,618.69 402.02,1080.76 0,459.45 -140.97,817.09 -417.68,1075.53 -279.33,258.44 -665.69,386.36 -1166.91,386.36 -503.83,0 -900.63,-127.92 -1185.17,-386.36 -284.55,-258.44 -428.13,-616.08 -428.13,-1075.53z"/>
  </g>
 </g>
</svg>
